<?xml version="1.0" encoding="UTF-8"?>
<!-- Phone icon -->
<svg xmlns="http://www.w3.org/2000/svg"
     width="14" height="14" viewBox="0 0 24 24"
     fill="none" stroke="#555" stroke-width="2"
     stroke-linecap="round" stroke-linejoin="round">
  <path d="M22 16.92v3a2 2 0 0 1-2.18 2A19.86 19.86 0 0 1 3.11 5.18 2 2 0 0 1 5.1 3h3a2 2 0 0 1 2 1.72c.12.9.32 1.77.6 2.61a2 2 0 0 1-.45 2.11l-1.27 1.27a16 16 0 0 0 6.88 6.88l1.27-1.27a2 2 0 0 1 2.11-.45c.84.28 1.71.48 2.61.6A2 2 0 0 1 22 16.92z"/>
</svg>
